<svg xmlns="http://www.w3.org/2000/svg" width="760" height="420" viewBox="0 0 760 420" font-family="DejaVu Sans, Helvetica, Arial, sans-serif">
<rect width="760" height="420" fill="#ffffff"/>
<text x="20" y="30" font-size="17" font-weight="bold">B03 — where the CPU time goes (Containment, -@1)</text>
<text x="20" y="50" font-size="12" fill="#555555">indexing 13.38s (26.3%) in blue · mapping 37.52s (73.7%) in orange · slices under 5% folded into 'other'</text>
<path d="M 200.00,210.00 L 200.00,70.00 A 140.00,140.00 0 0,1 270.23,88.89 Z" fill="#bcd9ef" stroke="#ffffff" stroke-width="2"/>
<path d="M 200.00,210.00 L 270.23,88.89 A 140.00,140.00 0 0,1 330.99,160.58 Z" fill="#8ec0e0" stroke="#ffffff" stroke-width="2"/>
<path d="M 200.00,210.00 L 330.99,160.58 A 140.00,140.00 0 0,1 339.70,219.14 Z" fill="#5aa2cd" stroke="#ffffff" stroke-width="2"/>
<path d="M 200.00,210.00 L 339.70,219.14 A 140.00,140.00 0 0,1 302.58,305.27 Z" fill="#fbd9a5" stroke="#ffffff" stroke-width="2"/>
<path d="M 200.00,210.00 L 302.58,305.27 A 140.00,140.00 0 0,1 207.32,349.81 Z" fill="#f7bc6d" stroke="#ffffff" stroke-width="2"/>
<path d="M 200.00,210.00 L 207.32,349.81 A 140.00,140.00 0 0,1 61.81,232.41 Z" fill="#f09a3e" stroke="#ffffff" stroke-width="2"/>
<path d="M 200.00,210.00 L 61.81,232.41 A 140.00,140.00 0 0,1 166.04,74.18 Z" fill="#b74d10" stroke="#ffffff" stroke-width="2"/>
<path d="M 200.00,210.00 L 166.04,74.18 A 140.00,140.00 0 0,1 200.00,70.00 Z" fill="#c2c2c2" stroke="#ffffff" stroke-width="2"/>
<rect x="400" y="81" width="14" height="14" fill="#bcd9ef" stroke="#dddddd" stroke-width="1"/>
<text x="422" y="92" font-size="13">index: reading</text>
<text x="740" y="92" font-size="13" text-anchor="end" fill="#333333">4.26 s · 8.4%</text>
<rect x="400" y="104" width="14" height="14" fill="#8ec0e0" stroke="#dddddd" stroke-width="1"/>
<text x="422" y="115" font-size="13">index: sketching</text>
<text x="740" y="115" font-size="13" text-anchor="end" fill="#333333">5.54 s · 10.9%</text>
<rect x="400" y="127" width="14" height="14" fill="#5aa2cd" stroke="#dddddd" stroke-width="1"/>
<text x="422" y="138" font-size="13">index: collecting</text>
<text x="740" y="138" font-size="13" text-anchor="end" fill="#333333">3.45 s · 6.8%</text>
<rect x="400" y="150" width="14" height="14" fill="#fbd9a5" stroke="#dddddd" stroke-width="1"/>
<text x="422" y="161" font-size="13">map: sketching</text>
<text x="740" y="161" font-size="13" text-anchor="end" fill="#333333">5.53 s · 10.9%</text>
<rect x="400" y="173" width="14" height="14" fill="#f7bc6d" stroke="#dddddd" stroke-width="1"/>
<text x="422" y="184" font-size="13">map: prepare</text>
<text x="740" y="184" font-size="13" text-anchor="end" fill="#333333">6.24 s · 12.3%</text>
<rect x="400" y="196" width="14" height="14" fill="#f09a3e" stroke="#dddddd" stroke-width="1"/>
<text x="422" y="207" font-size="13">map: match_seeds</text>
<text x="740" y="207" font-size="13" text-anchor="end" fill="#333333">11.85 s · 23.3%</text>
<rect x="400" y="219" width="14" height="14" fill="#b74d10" stroke="#dddddd" stroke-width="1"/>
<text x="422" y="230" font-size="13">map: match_rest</text>
<text x="740" y="230" font-size="13" text-anchor="end" fill="#333333">12.04 s · 23.7%</text>
<rect x="400" y="242" width="14" height="14" fill="#c2c2c2" stroke="#dddddd" stroke-width="1"/>
<text x="422" y="253" font-size="13">other (3 stages)</text>
<text x="740" y="253" font-size="13" text-anchor="end" fill="#333333">1.98 s · 3.9%</text>
<line x1="400" y1="270" x2="740" y2="270" stroke="#dddddd"/>
<text x="400" y="288" font-size="13" font-weight="bold">total</text>
<text x="740" y="288" font-size="13" text-anchor="end" font-weight="bold">50.90 s</text>
<text x="20" y="372" font-size="10.5" fill="#666666">source: current/profiles.tsv row B03/Containment/-@1</text>
<text x="20" y="387" font-size="10.5" fill="#666666">CPU-seconds summed across threads, not wall-clock — cpu_* and wall_* are different units and are never mixed.</text>
<text x="20" y="402" font-size="10.5" fill="#666666">not shown (nested inside a slice above, would double-count): seeding 4.94s (inside prepare), collect_kmer_info 3.58s (inside seeding), refine 7.29s (inside match_rest)</text>
</svg>