<svg xmlns="http://www.w3.org/2000/svg" width="760" height="420" viewBox="0 0 760 420" font-family="DejaVu Sans, Helvetica, Arial, sans-serif">
<rect width="760" height="420" fill="#ffffff"/>
<text x="20" y="30" font-size="17" font-weight="bold">B02 — mapping phase only (Containment, -@1)</text>
<text x="20" y="50" font-size="12" fill="#555555">24.10 CPU-seconds total · wall_mapping was 26.08s</text>
<path d="M 200.00,210.00 L 200.00,70.00 A 140.00,140.00 0 0,1 336.26,177.87 Z" fill="#fbd9a5" stroke="#ffffff" stroke-width="2"/>
<path d="M 200.00,210.00 L 336.26,177.87 A 140.00,140.00 0 0,1 257.93,337.45 Z" fill="#f7bc6d" stroke="#ffffff" stroke-width="2"/>
<path d="M 200.00,210.00 L 257.93,337.45 A 140.00,140.00 0 0,1 70.92,264.22 Z" fill="#f09a3e" stroke="#ffffff" stroke-width="2"/>
<path d="M 200.00,210.00 L 70.92,264.22 A 140.00,140.00 0 0,1 170.97,73.04 Z" fill="#b74d10" stroke="#ffffff" stroke-width="2"/>
<path d="M 200.00,210.00 L 170.97,73.04 A 140.00,140.00 0 0,1 200.00,70.00 Z" fill="#c2c2c2" stroke="#ffffff" stroke-width="2"/>
<rect x="400" y="81" width="14" height="14" fill="#fbd9a5" stroke="#dddddd" stroke-width="1"/>
<text x="422" y="92" font-size="13">map: sketching</text>
<text x="740" y="92" font-size="13" text-anchor="end" fill="#333333">5.14 s · 21.3%</text>
<rect x="400" y="104" width="14" height="14" fill="#f7bc6d" stroke="#dddddd" stroke-width="1"/>
<text x="422" y="115" font-size="13">map: prepare</text>
<text x="740" y="115" font-size="13" text-anchor="end" fill="#333333">5.28 s · 21.9%</text>
<rect x="400" y="127" width="14" height="14" fill="#f09a3e" stroke="#dddddd" stroke-width="1"/>
<text x="422" y="138" font-size="13">map: match_seeds</text>
<text x="740" y="138" font-size="13" text-anchor="end" fill="#333333">6.13 s · 25.5%</text>
<rect x="400" y="150" width="14" height="14" fill="#b74d10" stroke="#dddddd" stroke-width="1"/>
<text x="422" y="161" font-size="13">map: match_rest</text>
<text x="740" y="161" font-size="13" text-anchor="end" fill="#333333">6.75 s · 28.0%</text>
<rect x="400" y="173" width="14" height="14" fill="#c2c2c2" stroke="#dddddd" stroke-width="1"/>
<text x="422" y="184" font-size="13">other (2 stages)</text>
<text x="740" y="184" font-size="13" text-anchor="end" fill="#333333">0.80 s · 3.3%</text>
<line x1="400" y1="201" x2="740" y2="201" stroke="#dddddd"/>
<text x="400" y="219" font-size="13" font-weight="bold">total</text>
<text x="740" y="219" font-size="13" text-anchor="end" font-weight="bold">24.10 s</text>
<text x="20" y="372" font-size="10.5" fill="#666666">source: current/profiles.tsv row B02/Containment/-@1</text>
<text x="20" y="387" font-size="10.5" fill="#666666">CPU-seconds summed across threads, not wall-clock — cpu_* and wall_* are different units and are never mixed.</text>
<text x="20" y="402" font-size="10.5" fill="#666666">not shown (nested inside a slice above, would double-count): seeding 4.31s (inside prepare), collect_kmer_info 3.02s (inside seeding), refine 3.06s (inside match_rest)</text>
</svg>