<svg xmlns="http://www.w3.org/2000/svg" width="760" height="420" viewBox="0 0 760 420" font-family="DejaVu Sans, Helvetica, Arial, sans-serif">
<rect width="760" height="420" fill="#ffffff"/>
<text x="20" y="30" font-size="17" font-weight="bold">B03 — where the CPU time goes (Containment, -@1)</text>
<text x="20" y="50" font-size="12" fill="#555555">indexing 16.09s (29.2%) in blue · mapping 39.06s (70.8%) in orange · slices under 5% folded into 'other'</text>
<path d="M 200.00,210.00 L 200.00,70.00 A 140.00,140.00 0 0,1 274.34,91.37 Z" fill="#bcd9ef" stroke="#ffffff" stroke-width="2"/>
<path d="M 200.00,210.00 L 274.34,91.37 A 140.00,140.00 0 0,1 330.97,160.53 Z" fill="#8ec0e0" stroke="#ffffff" stroke-width="2"/>
<path d="M 200.00,210.00 L 330.97,160.53 A 140.00,140.00 0 0,1 335.66,244.61 Z" fill="#5aa2cd" stroke="#ffffff" stroke-width="2"/>
<path d="M 200.00,210.00 L 335.66,244.61 A 140.00,140.00 0 0,1 283.68,322.24 Z" fill="#fbd9a5" stroke="#ffffff" stroke-width="2"/>
<path d="M 200.00,210.00 L 283.68,322.24 A 140.00,140.00 0 0,1 186.00,349.30 Z" fill="#f7bc6d" stroke="#ffffff" stroke-width="2"/>
<path d="M 200.00,210.00 L 186.00,349.30 A 140.00,140.00 0 0,1 60.14,216.21 Z" fill="#f09a3e" stroke="#ffffff" stroke-width="2"/>
<path d="M 200.00,210.00 L 60.14,216.21 A 140.00,140.00 0 0,1 164.97,74.45 Z" fill="#b74d10" stroke="#ffffff" stroke-width="2"/>
<path d="M 200.00,210.00 L 164.97,74.45 A 140.00,140.00 0 0,1 200.00,70.00 Z" fill="#c2c2c2" stroke="#ffffff" stroke-width="2"/>
<rect x="400" y="81" width="14" height="14" fill="#bcd9ef" stroke="#dddddd" stroke-width="1"/>
<text x="422" y="92" font-size="13">index: reading</text>
<text x="740" y="92" font-size="13" text-anchor="end" fill="#333333">4.91 s · 8.9%</text>
<rect x="400" y="104" width="14" height="14" fill="#8ec0e0" stroke="#dddddd" stroke-width="1"/>
<text x="422" y="115" font-size="13">index: sketching</text>
<text x="740" y="115" font-size="13" text-anchor="end" fill="#333333">5.70 s · 10.3%</text>
<rect x="400" y="127" width="14" height="14" fill="#5aa2cd" stroke="#dddddd" stroke-width="1"/>
<text x="422" y="138" font-size="13">index: collecting</text>
<text x="740" y="138" font-size="13" text-anchor="end" fill="#333333">5.36 s · 9.7%</text>
<rect x="400" y="150" width="14" height="14" fill="#fbd9a5" stroke="#dddddd" stroke-width="1"/>
<text x="422" y="161" font-size="13">map: sketching</text>
<text x="740" y="161" font-size="13" text-anchor="end" fill="#333333">5.97 s · 10.8%</text>
<rect x="400" y="173" width="14" height="14" fill="#f7bc6d" stroke="#dddddd" stroke-width="1"/>
<text x="422" y="184" font-size="13">map: prepare</text>
<text x="740" y="184" font-size="13" text-anchor="end" fill="#333333">6.50 s · 11.8%</text>
<rect x="400" y="196" width="14" height="14" fill="#f09a3e" stroke="#dddddd" stroke-width="1"/>
<text x="422" y="207" font-size="13">map: match_seeds</text>
<text x="740" y="207" font-size="13" text-anchor="end" fill="#333333">12.52 s · 22.7%</text>
<rect x="400" y="219" width="14" height="14" fill="#b74d10" stroke="#dddddd" stroke-width="1"/>
<text x="422" y="230" font-size="13">map: match_rest</text>
<text x="740" y="230" font-size="13" text-anchor="end" fill="#333333">11.96 s · 21.7%</text>
<rect x="400" y="242" width="14" height="14" fill="#c2c2c2" stroke="#dddddd" stroke-width="1"/>
<text x="422" y="253" font-size="13">other (3 stages)</text>
<text x="740" y="253" font-size="13" text-anchor="end" fill="#333333">2.22 s · 4.0%</text>
<line x1="400" y1="270" x2="740" y2="270" stroke="#dddddd"/>
<text x="400" y="288" font-size="13" font-weight="bold">total</text>
<text x="740" y="288" font-size="13" text-anchor="end" font-weight="bold">55.15 s</text>
<text x="20" y="372" font-size="10.5" fill="#666666">source: current/profiles.tsv row B03/Containment/-@1</text>
<text x="20" y="387" font-size="10.5" fill="#666666">CPU-seconds summed across threads, not wall-clock — cpu_* and wall_* are different units and are never mixed.</text>
<text x="20" y="402" font-size="10.5" fill="#666666">not shown (nested inside a slice above, would double-count): seeding 5.11s (inside prepare), collect_kmer_info 3.72s (inside seeding), refine 7.47s (inside match_rest)</text>
</svg>