<svg xmlns="http://www.w3.org/2000/svg" width="760" height="420" viewBox="0 0 760 420" font-family="DejaVu Sans, Helvetica, Arial, sans-serif">
<rect width="760" height="420" fill="#ffffff"/>
<text x="20" y="30" font-size="17" font-weight="bold">B03 — mapping phase only (Containment, -@1)</text>
<text x="20" y="50" font-size="12" fill="#555555">35.98 CPU-seconds total · wall_mapping was 39.49s</text>
<path d="M 200.00,210.00 L 200.00,70.00 A 140.00,140.00 0 0,1 314.68,129.70 Z" fill="#fbd9a5" stroke="#ffffff" stroke-width="2"/>
<path d="M 200.00,210.00 L 314.68,129.70 A 140.00,140.00 0 0,1 329.04,264.30 Z" fill="#f7bc6d" stroke="#ffffff" stroke-width="2"/>
<path d="M 200.00,210.00 L 329.04,264.30 A 140.00,140.00 0 0,1 97.63,305.50 Z" fill="#f09a3e" stroke="#ffffff" stroke-width="2"/>
<path d="M 200.00,210.00 L 97.63,305.50 A 140.00,140.00 0 0,1 71.90,266.47 Z" fill="#dd7020" stroke="#ffffff" stroke-width="2"/>
<path d="M 200.00,210.00 L 71.90,266.47 A 140.00,140.00 0 0,1 197.41,70.02 Z" fill="#b74d10" stroke="#ffffff" stroke-width="2"/>
<path d="M 200.00,210.00 L 197.41,70.02 A 140.00,140.00 0 0,1 200.00,70.00 Z" fill="#c2c2c2" stroke="#ffffff" stroke-width="2"/>
<rect x="400" y="81" width="14" height="14" fill="#fbd9a5" stroke="#dddddd" stroke-width="1"/>
<text x="422" y="92" font-size="13">map: sketching</text>
<text x="740" y="92" font-size="13" text-anchor="end" fill="#333333">5.50 s · 15.3%</text>
<rect x="400" y="104" width="14" height="14" fill="#f7bc6d" stroke="#dddddd" stroke-width="1"/>
<text x="422" y="115" font-size="13">map: prepare</text>
<text x="740" y="115" font-size="13" text-anchor="end" fill="#333333">5.78 s · 16.1%</text>
<rect x="400" y="127" width="14" height="14" fill="#f09a3e" stroke="#dddddd" stroke-width="1"/>
<text x="422" y="138" font-size="13">map: match_seeds</text>
<text x="740" y="138" font-size="13" text-anchor="end" fill="#333333">11.41 s · 31.7%</text>
<rect x="400" y="150" width="14" height="14" fill="#dd7020" stroke="#dddddd" stroke-width="1"/>
<text x="422" y="161" font-size="13">map: bucket_merge</text>
<text x="740" y="161" font-size="13" text-anchor="end" fill="#333333">1.92 s · 5.3%</text>
<rect x="400" y="173" width="14" height="14" fill="#b74d10" stroke="#dddddd" stroke-width="1"/>
<text x="422" y="184" font-size="13">map: match_rest</text>
<text x="740" y="184" font-size="13" text-anchor="end" fill="#333333">11.27 s · 31.3%</text>
<rect x="400" y="196" width="14" height="14" fill="#c2c2c2" stroke="#dddddd" stroke-width="1"/>
<text x="422" y="207" font-size="13">other: map: other (unattributed)</text>
<text x="740" y="207" font-size="13" text-anchor="end" fill="#333333">0.11 s · 0.3%</text>
<line x1="400" y1="224" x2="740" y2="224" stroke="#dddddd"/>
<text x="400" y="242" font-size="13" font-weight="bold">total</text>
<text x="740" y="242" font-size="13" text-anchor="end" font-weight="bold">35.98 s</text>
<text x="20" y="372" font-size="10.5" fill="#666666">source: current/profiles.tsv row B03/Containment/-@1</text>
<text x="20" y="387" font-size="10.5" fill="#666666">CPU-seconds summed across threads, not wall-clock — cpu_* and wall_* are different units and are never mixed.</text>
<text x="20" y="402" font-size="10.5" fill="#666666">not shown (nested inside a slice above, would double-count): seeding 4.38s (inside prepare), collect_kmer_info 2.97s (inside seeding), refine 6.93s (inside match_rest)</text>
</svg>